Coordinates
version=1
nRows=7
nColumns=60
inDegrees=yes

Units are S.I. units (second, meters, Newtons, ...)
If the header above contains a line with 'inDegrees', this indicates whether rotational values are in degrees (yes) or radians (no).

endheader
time	pelvis_tilt	pelvis_list	pelvis_rotation	pelvis_tx	pelvis_ty	pelvis_tz	hip_flexion_r	hip_adduction_r	hip_rotation_r	knee_angle_r_beta	knee_angle_r	ankle_angle_r	subtalar_angle_r	mtp_angle_r	hip_flexion_l	hip_adduction_l	hip_rotation_l	knee_angle_l_beta	knee_angle_l	ankle_angle_l	subtalar_angle_l	mtp_angle_l	L5_S1_Flex_Ext	L5_S1_Lat_Bending	L5_S1_axial_rotation	L4_L5_Flex_Ext	L4_L5_Lat_Bending	L4_L5_axial_rotation	L3_L4_Flex_Ext	L3_L4_Lat_Bending	L3_L4_axial_rotation	L2_L3_Flex_Ext	L2_L3_Lat_Bending	L2_L3_axial_rotation	L1_L2_Flex_Ext	L1_L2_Lat_Bending	L1_L2_axial_rotation	L1_T12_Flex_Ext	L1_T12_Lat_Bending	L1_T12_axial_rotation	Abs_r3	Abs_r2	Abs_r1	Abs_t1	Abs_t2	arm_flex_r	arm_add_r	arm_rot_r	elbow_flex_r	pro_sup_r	wrist_flex_r	wrist_dev_r	arm_flex_l	arm_add_l	arm_rot_l	elbow_flex_l	pro_sup_l	wrist_flex_l	wrist_dev_l
    122.80000000	     -0.38672700	      2.76958629	     94.18728325	      0.40528946	      0.91524083	      0.36368104	     19.06870140	     -6.23201324	     -1.67002079	      0.47828934	    -27.40396065	      8.13653704	      0.00000000	      0.00000000	     18.98417827	     -4.98509130	     -0.43225058	      0.41056858	    -23.52384666	      7.14938329	      0.00000000	      0.00000000	     -9.76296283	      0.15102141	     -0.09905596	    -18.13079828	      0.20085848	     -0.10524696	    -16.03957164	      0.36719346	     -0.10524696	    -11.15809022	      0.36719346	     -0.08667397	     -9.06588729	      0.30796286	     -0.08048297	     -5.57855696	      0.23393217	     -0.07429197	    -69.73586723	      1.70838441	     -0.55091956	      0.00000000	      0.00000000	     50.40243272	    -27.11210734	     21.21449218	     63.81008783	     66.22180237	     10.35080476	     17.41459471	     58.72856849	    -25.88984841	     32.47792046	     58.27554350	     57.43771822	     12.48970022	     17.76411101
    122.81000000	     -0.39387421	      3.55806036	     94.09425573	      0.40532729	      0.91761745	      0.36002762	     17.65931651	     -6.13023036	     -1.69049186	      0.46801020	    -26.81500936	      8.22171096	      0.00000000	      0.00000000	     17.57616289	     -5.07383325	     -0.55985646	      0.40173687	    -23.01782726	      7.34547101	      0.00000000	      0.00000000	     -9.65921350	      0.14308467	     -0.08969943	    -17.93812538	      0.19030260	     -0.09530564	    -15.86912185	      0.34789605	     -0.09530564	    -11.03951510	      0.34789605	     -0.07848700	     -8.96954565	      0.29177825	     -0.07288079	     -5.51927459	      0.22163815	     -0.06727457	    -68.99479608	      1.61860235	     -0.49888131	      0.00000000	      0.00000000	     49.01332617	    -27.57207630	     21.62009741	     64.56527765	     65.66679024	     10.27687259	     17.86763707	     57.27489307	    -26.25388520	     32.33843272	     59.30386863	     57.15369440	     12.36126456	     18.35291471
    122.82000000	     -0.36801505	      4.50524510	     93.99502201	      0.40527523	      0.92012847	      0.35632900	     16.11786666	     -5.99585231	     -1.70745828	      0.45969900	    -26.33881274	      8.19355698	      0.00000000	      0.00000000	     16.07455353	     -5.19226070	     -0.60091773	      0.39576849	    -22.67586403	      7.44714554	      0.00000000	      0.00000000	     -9.59184032	      0.13466457	     -0.13594704	    -17.81300667	      0.17910388	     -0.14444372	    -15.75843447	      0.32742343	     -0.14444372	    -10.96251431	      0.32742343	     -0.11895366	     -8.90698293	      0.27460799	     -0.11045697	     -5.48077756	      0.20859542	     -0.10196028	    -68.51355625	      1.52335252	     -0.75609663	      0.00000000	      0.00000000	     48.12431257	    -27.87268706	     22.65903505	     65.60538983	     60.96978000	      8.51056266	     22.15140659	     55.44358864	    -26.98736855	     31.26518378	     61.41406483	     55.40429358	     10.48953935	     23.99067755
    122.83000000	     -0.34133002	      5.19618710	     93.84976963	      0.40532360	      0.92223897	      0.35247031	     14.80834733	     -5.86521915	     -1.67291587	      0.44933235	    -25.74484697	      8.27501580	      0.00000000	      0.00000000	     14.77932275	     -5.29824299	     -0.69660793	      0.38804514	    -22.23334871	      7.66029428	      0.00000000	      0.00000000	     -9.47199773	      0.12910202	     -0.11213781	    -17.59044698	      0.17170569	     -0.11914642	    -15.56154507	      0.31389866	     -0.11914642	    -10.82554621	      0.31389866	     -0.09812058	     -8.79569709	      0.26326485	     -0.09111197	     -5.41229950	      0.19997904	     -0.08410336	    -67.65753259	      1.46042791	     -0.62367687	      0.00000000	      0.00000000	     46.58001042	    -28.38612476	     22.79148715	     66.66819711	     60.88534277	      8.27797444	     22.36264285	     53.83401187	    -27.33070922	     30.87763030	     62.61753741	     55.41395733	     10.37088826	     24.21019716
    122.84000000	     -0.30404028	      5.82663674	     93.73329951	      0.40521436	      0.92418777	      0.34851613	     13.56013304	     -5.75617083	     -1.71426331	      0.43926103	    -25.16780294	      8.33074200	      0.00000000	      0.00000000	     13.57621227	     -5.40297477	     -0.84835121	      0.38104924	    -21.83251322	      7.86640949	      0.00000000	      0.00000000	     -9.34496890	      0.12856776	     -0.11796607	    -17.35454175	      0.17099512	     -0.12533895	    -15.35284941	      0.31259964	     -0.12533895	    -10.68036496	      0.31259964	     -0.10322031	     -8.67773812	      0.26217537	     -0.09584744	     -5.33971523	      0.19915145	     -0.08847456	    -66.75017838	      1.45438418	     -0.65609191	      0.00000000	      0.00000000	     45.11796389	    -28.76802005	     22.86791646	     67.82149366	     60.59969878	      7.93051319	     22.87085085	     51.86405541	    -27.76735869	     29.97571536	     64.07195668	     55.38898910	     10.19689763	     24.61115987
    122.85000000	     -0.25080412	      6.42727259	     93.60405077	      0.40516523	      0.92604054	      0.34455388	     12.32265366	     -5.60552784	     -1.60215365	      0.42850877	    -24.55174404	      8.41812550	      0.00000000	      0.00000000	     12.40161039	     -5.51101681	     -0.92190916	      0.37402113	    -21.42983218	      8.11244678	      0.00000000	      0.00000000	     -9.22251880	      0.12451832	     -0.12124744	    -17.12713967	      0.16560937	     -0.12882540	    -15.15167614	      0.30275385	     -0.12882540	    -10.54041674	      0.30275385	     -0.10609151	     -8.56403096	      0.25391776	     -0.09851354	     -5.26974724	      0.19287888	     -0.09093558	    -65.87552954	      1.40857617	     -0.67434187	      0.00000000	      0.00000000	     43.53356113	    -29.16765899	     22.76946857	     69.17693188	     60.37564130	      7.70305735	     23.28693368	     49.81621749	    -28.23238048	     28.82511197	     65.71543459	     55.38346101	     10.12358566	     24.85129750
    122.86000000	     -0.18979542	      7.00921510	     93.47220815	      0.40502333	      0.92780582	      0.34053950	     11.12742465	     -5.49294367	     -1.72422053	      0.41841557	    -23.97344629	      8.45424148	      0.00000000	      0.00000000	     11.27877080	     -5.63270017	     -1.12980210	      0.36802666	    -21.08637442	      8.32181074	      0.00000000	      0.00000000	     -9.10499234	      0.11627999	     -0.18619045	    -16.90888127	      0.15465239	     -0.19782735	    -14.95859191	      0.28272318	     -0.19782735	    -10.40609574	      0.28272318	     -0.16291664	     -8.45489589	      0.23711816	     -0.15127974	     -5.20259262	      0.18011771	     -0.13964284	    -65.03604978	      1.31538254	     -1.03553542	      0.00000000	      0.00000000	     42.29480398	    -29.22155891	     22.84514766	     70.43625792	     59.92047707	      6.52734461	     25.30191144	     47.13538929	    -28.84201852	     26.56735119	     67.80007849	     56.20659406	     10.21170694	     26.10391281
